<svg xmlns="http://www.w3.org/2000/svg" viewBox="0 0 64 64" fill="none">
  <defs>
    <linearGradient id="g" x1="0" y1="0" x2="64" y2="64" gradientUnits="userSpaceOnUse">
      <stop stop-color="#6366F1"/>
      <stop offset="1" stop-color="#4338CA"/>
    </linearGradient>
  </defs>
  <rect width="64" height="64" rx="12" fill="url(#g)"/>
  <path fill="#fff" fill-rule="evenodd" clip-rule="evenodd" d="M32 12c-7.732 0-14 6.268-14 14v2.4c0 4.262-1.592 8.253-4.48 11.34l-1.373 1.45A2 2 0 0 0 14.4 46h35.2a2 2 0 0 0 1.253-3.51l-1.373-1.45A18.94 18.94 0 0 1 46 28.4V26c0-7.732-6.268-14-14-14Zm-6.2 34.4a6.2 6.2 0 1 1 12.4 0H25.8Zm6.2-20.8c2.21 0 4-1.79 4-4v-.4a4 4 0 1 0-8 0v.4c0 2.21 1.79 4 4 4Z"/>
</svg>
